<svg id="visual" viewBox="0 0 1920 1080" width="1920" height="1080" xmlns="http://www.w3.org/2000/svg" xmlns:xlink="http://www.w3.org/1999/xlink" version="1.1"><rect x="0" y="0" width="1920" height="1080" fill="#fafdff"></rect><path d="M0 143L21.3 137.8C42.7 132.7 85.3 122.3 128 113C170.7 103.7 213.3 95.3 256 111.5C298.7 127.7 341.3 168.3 384 172.8C426.7 177.3 469.3 145.7 512 138.5C554.7 131.3 597.3 148.7 640 148.8C682.7 149 725.3 132 768 135.8C810.7 139.7 853.3 164.3 896 169.8C938.7 175.3 981.3 161.7 1024 145.7C1066.7 129.7 1109.3 111.3 1152 121.5C1194.7 131.7 1237.3 170.3 1280 180.8C1322.7 191.3 1365.3 173.7 1408 166.2C1450.7 158.7 1493.3 161.3 1536 148C1578.7 134.7 1621.3 105.3 1664 95C1706.7 84.7 1749.3 93.3 1792 112.3C1834.7 131.3 1877.3 160.7 1898.7 175.3L1920 190L1920 0L1898.7 0C1877.3 0 1834.7 0 1792 0C1749.3 0 1706.7 0 1664 0C1621.3 0 1578.7 0 1536 0C1493.3 0 1450.7 0 1408 0C1365.3 0 1322.7 0 1280 0C1237.3 0 1194.7 0 1152 0C1109.3 0 1066.7 0 1024 0C981.3 0 938.7 0 896 0C853.3 0 810.7 0 768 0C725.3 0 682.7 0 640 0C597.3 0 554.7 0 512 0C469.3 0 426.7 0 384 0C341.3 0 298.7 0 256 0C213.3 0 170.7 0 128 0C85.3 0 42.7 0 21.3 0L0 0Z" fill="#146c80"></path><path d="M0 148L21.3 150.2C42.7 152.3 85.3 156.7 128 155.7C170.7 154.7 213.3 148.3 256 141.2C298.7 134 341.3 126 384 130.3C426.7 134.7 469.3 151.3 512 154.3C554.7 157.3 597.3 146.7 640 139.2C682.7 131.7 725.3 127.3 768 115C810.7 102.7 853.3 82.3 896 86.3C938.7 90.3 981.3 118.7 1024 130.8C1066.7 143 1109.3 139 1152 132C1194.7 125 1237.3 115 1280 112.3C1322.7 109.7 1365.3 114.3 1408 121.3C1450.7 128.3 1493.3 137.7 1536 132C1578.7 126.3 1621.3 105.7 1664 93.7C1706.7 81.7 1749.3 78.3 1792 75C1834.7 71.7 1877.3 68.3 1898.7 66.7L1920 65L1920 0L1898.7 0C1877.3 0 1834.7 0 1792 0C1749.3 0 1706.7 0 1664 0C1621.3 0 1578.7 0 1536 0C1493.3 0 1450.7 0 1408 0C1365.3 0 1322.7 0 1280 0C1237.3 0 1194.7 0 1152 0C1109.3 0 1066.7 0 1024 0C981.3 0 938.7 0 896 0C853.3 0 810.7 0 768 0C725.3 0 682.7 0 640 0C597.3 0 554.7 0 512 0C469.3 0 426.7 0 384 0C341.3 0 298.7 0 256 0C213.3 0 170.7 0 128 0C85.3 0 42.7 0 21.3 0L0 0Z" fill="#1a5766"></path><path d="M0 92L21.3 95.5C42.7 99 85.3 106 128 102.7C170.7 99.3 213.3 85.7 256 85.8C298.7 86 341.3 100 384 101.3C426.7 102.7 469.3 91.3 512 94.8C554.7 98.3 597.3 116.7 640 123.7C682.7 130.7 725.3 126.3 768 124.8C810.7 123.3 853.3 124.7 896 117.3C938.7 110 981.3 94 1024 92C1066.7 90 1109.3 102 1152 102.8C1194.7 103.7 1237.3 93.3 1280 86.8C1322.7 80.3 1365.3 77.7 1408 83.7C1450.7 89.7 1493.3 104.3 1536 99.8C1578.7 95.3 1621.3 71.7 1664 67.7C1706.7 63.7 1749.3 79.3 1792 93.2C1834.7 107 1877.3 119 1898.7 125L1920 131L1920 0L1898.7 0C1877.3 0 1834.7 0 1792 0C1749.3 0 1706.7 0 1664 0C1621.3 0 1578.7 0 1536 0C1493.3 0 1450.7 0 1408 0C1365.3 0 1322.7 0 1280 0C1237.3 0 1194.7 0 1152 0C1109.3 0 1066.7 0 1024 0C981.3 0 938.7 0 896 0C853.3 0 810.7 0 768 0C725.3 0 682.7 0 640 0C597.3 0 554.7 0 512 0C469.3 0 426.7 0 384 0C341.3 0 298.7 0 256 0C213.3 0 170.7 0 128 0C85.3 0 42.7 0 21.3 0L0 0Z" fill="#1b444e"></path><path d="M0 102L21.3 104.3C42.7 106.7 85.3 111.3 128 108.5C170.7 105.7 213.3 95.3 256 89.3C298.7 83.3 341.3 81.7 384 86.7C426.7 91.7 469.3 103.3 512 99C554.7 94.7 597.3 74.3 640 60.5C682.7 46.7 725.3 39.3 768 38.3C810.7 37.3 853.3 42.7 896 54C938.7 65.3 981.3 82.7 1024 84C1066.7 85.3 1109.3 70.7 1152 66C1194.7 61.3 1237.3 66.7 1280 65C1322.7 63.3 1365.3 54.7 1408 53.7C1450.7 52.7 1493.3 59.3 1536 59.3C1578.7 59.3 1621.3 52.7 1664 53.2C1706.7 53.7 1749.3 61.3 1792 63.8C1834.7 66.3 1877.3 63.7 1898.7 62.3L1920 61L1920 0L1898.7 0C1877.3 0 1834.7 0 1792 0C1749.3 0 1706.7 0 1664 0C1621.3 0 1578.7 0 1536 0C1493.3 0 1450.7 0 1408 0C1365.3 0 1322.7 0 1280 0C1237.3 0 1194.7 0 1152 0C1109.3 0 1066.7 0 1024 0C981.3 0 938.7 0 896 0C853.3 0 810.7 0 768 0C725.3 0 682.7 0 640 0C597.3 0 554.7 0 512 0C469.3 0 426.7 0 384 0C341.3 0 298.7 0 256 0C213.3 0 170.7 0 128 0C85.3 0 42.7 0 21.3 0L0 0Z" fill="#193137"></path><path d="M0 35L21.3 34C42.7 33 85.3 31 128 39C170.7 47 213.3 65 256 69.2C298.7 73.3 341.3 63.7 384 52.5C426.7 41.3 469.3 28.7 512 26.8C554.7 25 597.3 34 640 36.8C682.7 39.7 725.3 36.3 768 39.3C810.7 42.3 853.3 51.7 896 49.2C938.7 46.7 981.3 32.3 1024 35C1066.7 37.7 1109.3 57.3 1152 59.8C1194.7 62.3 1237.3 47.7 1280 49.3C1322.7 51 1365.3 69 1408 75.5C1450.7 82 1493.3 77 1536 68.3C1578.7 59.7 1621.3 47.3 1664 46.2C1706.7 45 1749.3 55 1792 55.7C1834.7 56.3 1877.3 47.7 1898.7 43.3L1920 39L1920 0L1898.7 0C1877.3 0 1834.7 0 1792 0C1749.3 0 1706.7 0 1664 0C1621.3 0 1578.7 0 1536 0C1493.3 0 1450.7 0 1408 0C1365.3 0 1322.7 0 1280 0C1237.3 0 1194.7 0 1152 0C1109.3 0 1066.7 0 1024 0C981.3 0 938.7 0 896 0C853.3 0 810.7 0 768 0C725.3 0 682.7 0 640 0C597.3 0 554.7 0 512 0C469.3 0 426.7 0 384 0C341.3 0 298.7 0 256 0C213.3 0 170.7 0 128 0C85.3 0 42.7 0 21.3 0L0 0Z" fill="#141e21"></path><path d="M0 13L21.3 18.7C42.7 24.3 85.3 35.7 128 42C170.7 48.3 213.3 49.7 256 47.3C298.7 45 341.3 39 384 38.3C426.7 37.7 469.3 42.3 512 37.7C554.7 33 597.3 19 640 20.2C682.7 21.3 725.3 37.7 768 43C810.7 48.3 853.3 42.7 896 39.8C938.7 37 981.3 37 1024 35.2C1066.7 33.3 1109.3 29.7 1152 31C1194.7 32.3 1237.3 38.7 1280 34.3C1322.7 30 1365.3 15 1408 16.5C1450.7 18 1493.3 36 1536 44.2C1578.7 52.3 1621.3 50.7 1664 43.8C1706.7 37 1749.3 25 1792 18.7C1834.7 12.3 1877.3 11.7 1898.7 11.3L1920 11L1920 0L1898.7 0C1877.3 0 1834.7 0 1792 0C1749.3 0 1706.7 0 1664 0C1621.3 0 1578.7 0 1536 0C1493.3 0 1450.7 0 1408 0C1365.3 0 1322.7 0 1280 0C1237.3 0 1194.7 0 1152 0C1109.3 0 1066.7 0 1024 0C981.3 0 938.7 0 896 0C853.3 0 810.7 0 768 0C725.3 0 682.7 0 640 0C597.3 0 554.7 0 512 0C469.3 0 426.7 0 384 0C341.3 0 298.7 0 256 0C213.3 0 170.7 0 128 0C85.3 0 42.7 0 21.3 0L0 0Z" fill="#0a0a0a"></path></svg>